<svg width="42" height="42" viewBox="0 0 42 42" fill="none" xmlns="http://www.w3.org/2000/svg">
<circle cx="21.25" cy="20.75" r="20.75" fill="white"/>
<path d="M23.8419 11.5036C23.5419 11.1935 23.0554 11.1935 22.7554 11.5036L12.6365 21.9597C12.3365 22.2698 12.3365 22.7724 12.6365 23.0825L13.7307 24.2131C14.1376 23.978 14.6067 23.8442 15.1039 23.8442C16.6596 23.8442 17.9208 25.1474 17.9208 26.755C17.9208 27.2689 17.7913 27.7536 17.5638 28.174L18.6581 29.3049C18.9582 29.6149 19.4446 29.6149 19.7446 29.3049L29.8636 18.8486C30.1636 18.5386 30.1636 18.036 29.8636 17.7259L28.7693 16.5952C28.3623 16.8304 27.8931 16.9643 27.3958 16.9643C25.84 16.9643 24.5789 15.661 24.5789 14.0535C24.5789 13.5395 24.7085 13.0547 24.9361 12.6342L23.8419 11.5036ZM21.669 10.3809C22.5691 9.45084 24.0283 9.45084 24.9284 10.3809L26.1283 11.6209C26.6515 12.1615 26.5578 12.9204 26.2939 13.3789C26.1806 13.5758 26.1154 13.8055 26.1154 14.0535C26.1154 14.7842 26.6886 15.3766 27.3958 15.3766C27.6357 15.3766 27.858 15.3091 28.0486 15.192C28.4923 14.9194 29.2267 14.8225 29.7499 15.3632L30.9499 16.6033C31.85 17.5333 31.85 19.0412 30.9499 19.9713L20.8311 30.4275C19.931 31.3575 18.4717 31.3575 17.5717 30.4275L16.3715 29.1874C15.8484 28.6468 15.9421 27.888 16.2058 27.4296C16.3191 27.2326 16.3843 27.0029 16.3843 26.755C16.3843 26.0244 15.811 25.4319 15.1039 25.4319C14.864 25.4319 14.6417 25.4994 14.4512 25.6164C14.0075 25.889 13.2732 25.9857 12.7501 25.4452L11.55 24.2052C10.65 23.2751 10.65 21.7672 11.55 20.8371L21.669 10.3809Z" fill="#FFBD69"/>
</svg>
