<svg width="36" height="36" viewBox="0 0 36 36" fill="none" xmlns="http://www.w3.org/2000/svg">
<rect x="2" y="2" width="32" height="32" rx="16" fill="#FFF0EB"/>
<rect x="2" y="2" width="32" height="32" rx="16" stroke="#FFFAF5" stroke-width="4"/>
<path d="M18.6665 11.3333H13.9998C13.6462 11.3333 13.3071 11.4737 13.057 11.7238C12.807 11.9738 12.6665 12.313 12.6665 12.6666V23.3333C12.6665 23.6869 12.807 24.026 13.057 24.2761C13.3071 24.5261 13.6462 24.6666 13.9998 24.6666H21.9998C22.3535 24.6666 22.6926 24.5261 22.9426 24.2761C23.1927 24.026 23.3332 23.6869 23.3332 23.3333V15.9999M18.6665 11.3333L23.3332 15.9999M18.6665 11.3333V15.9999H23.3332" stroke="#D0662E" stroke-width="1.33333" stroke-linecap="round" stroke-linejoin="round"/>
</svg>
