<svg width="50" height="50" viewBox="0 0 50 50" fill="none" xmlns="http://www.w3.org/2000/svg">
<rect width="50" height="50" rx="6" fill="#D0662E"/>
<path fill-rule="evenodd" clip-rule="evenodd" d="M18.764 28.9786C18.764 27.8953 18.7634 27.8953 18.7634 27.8953L18.7615 27.8953L18.7586 27.8953L18.7509 27.8954L18.7288 27.8956C18.7112 27.8959 18.6878 27.8965 18.6593 27.8974C18.6023 27.8994 18.5241 27.9032 18.4295 27.9105C18.2418 27.9249 17.9817 27.9537 17.6897 28.0121C17.1474 28.1206 16.3131 28.3654 15.6998 28.9786C15.2467 29.4318 15.0889 30.1 15.0143 30.548C14.9284 31.0631 14.9038 31.6328 14.9038 32.1385C14.9038 32.651 14.9293 33.133 14.9544 33.4844C14.967 33.661 14.9797 33.8067 14.9893 33.9094C14.9941 33.9607 14.9982 34.0014 15.0011 34.0299L15.0046 34.0633L15.0056 34.0729L15.0061 34.0772C15.0061 34.0772 15.0061 34.0775 16.0828 33.9578L15.0061 34.0772C15.0621 34.5808 15.4596 34.9786 15.9632 35.0346L16.0828 33.9578C15.9632 35.0346 15.9632 35.0346 15.9632 35.0346L15.9649 35.0347L15.9678 35.0351L15.9773 35.0361L16.0108 35.0396C16.0393 35.0425 16.08 35.0466 16.1313 35.0514C16.234 35.061 16.3796 35.0737 16.5562 35.0863C16.9077 35.1114 17.3897 35.1369 17.9022 35.1369C18.4078 35.1369 18.9776 35.1123 19.4926 35.0264C19.9407 34.9518 20.6089 34.794 21.0621 34.3409C21.6753 33.7276 21.9201 32.8933 22.0286 32.351C22.087 32.059 22.1158 31.7989 22.1302 31.6112C22.1375 31.5166 22.1413 31.4384 22.1432 31.3814C22.1442 31.3529 22.1448 31.3295 22.1451 31.3119L22.1453 31.2898L22.1454 31.2821L22.1454 31.2791L22.1454 31.2779C22.1454 31.2779 20.3369 31.2767 22.1454 31.2767C22.1454 30.6784 21.6604 30.1934 21.0621 30.1934C20.4639 30.1934 19.979 30.6781 19.9787 31.2762L19.9787 31.2749L19.9787 31.2736L19.9787 31.2762C19.9786 31.2814 19.9784 31.2919 19.9779 31.3067C19.9768 31.3365 19.9746 31.384 19.9699 31.445C19.9604 31.5685 19.9414 31.7392 19.904 31.9261C19.8256 32.3183 19.6979 32.6209 19.5552 32.782C19.5429 32.7838 19.4333 32.8398 19.1364 32.8893C18.7897 32.947 18.354 32.9703 17.9022 32.9703C17.617 32.9703 17.339 32.9611 17.0922 32.9485C17.0796 32.7017 17.0704 32.4237 17.0704 32.1385C17.0704 31.6867 17.0936 31.251 17.1514 30.9042C17.2009 30.6074 17.2569 30.4978 17.2587 30.4855C17.4198 30.3428 17.7224 30.2151 18.1146 30.1367C18.3015 30.0993 18.4722 30.0802 18.5957 30.0707C18.6567 30.0661 18.7042 30.0639 18.734 30.0628C18.7488 30.0623 18.7591 30.0621 18.7643 30.062M18.7677 30.062C19.3643 30.0599 19.8473 29.5757 19.8473 28.9786C19.8473 28.3803 19.3617 27.8953 18.7634 27.8953L18.764 28.9786" fill="white"/>
<path fill-rule="evenodd" clip-rule="evenodd" d="M33.4262 15.6436C33.9392 15.695 34.345 16.1008 34.3963 16.6138C34.8074 20.7246 33.5759 24.2588 31.6325 26.728C31.1627 27.3248 30.6447 27.8664 30.092 28.3405C30.776 29.5643 30.9319 30.9998 30.3567 32.3418C29.5809 34.1522 27.628 35.4457 24.7264 35.8601C24.4155 35.9045 24.1006 35.8118 23.8634 35.606C23.6261 35.4002 23.4899 35.1016 23.4899 34.7875C23.49 32.6164 23.8184 31.3726 24.025 30.5899L24.0253 30.5887C24.0468 30.5073 24.067 30.4308 24.0853 30.3588C23.9588 30.3049 23.8428 30.227 23.744 30.1283L19.9133 26.2975C19.8059 26.1901 19.7231 26.0623 19.6691 25.9227C19.5922 25.9422 19.5102 25.9638 19.4224 25.987C18.6397 26.1936 17.3957 26.522 15.2245 26.5222C14.9166 26.5222 14.6233 26.3912 14.4178 26.1619C14.2122 25.9327 14.114 25.6268 14.1476 25.3207C14.4733 22.3516 15.7102 20.324 17.5504 19.5354C18.9454 18.9376 20.4429 19.157 21.7194 19.926C22.1887 19.3818 22.7235 18.8713 23.3121 18.4079C25.7809 16.464 29.3149 15.2322 33.4262 15.6436ZM28.2945 29.5745C27.6496 29.9159 26.9817 30.1675 26.3073 30.3145C26.2799 30.5062 26.238 30.6822 26.1991 30.8377C26.1758 30.9308 26.1503 31.0275 26.1234 31.1295C25.9795 31.6747 25.7964 32.3687 25.7084 33.4414C27.2856 32.9776 28.0647 32.1896 28.3653 31.4883C28.6145 30.9067 28.6035 30.229 28.2945 29.5745ZM29.9299 25.3879C29.4921 25.9441 29.0225 26.4212 28.5381 26.8187C28.5337 26.8181 28.5292 26.8176 28.5248 26.8171C27.3437 27.7843 26.0758 28.2782 24.9707 28.2908L21.737 25.0571C21.7545 23.4962 22.7316 21.6105 24.6456 20.1034C26.5009 18.6425 29.1453 17.6262 32.2944 17.7318C32.2944 17.734 32.2945 17.7362 32.2946 17.7384C32.2968 17.7385 32.299 17.7386 32.3012 17.7387C32.4066 20.8876 31.3905 23.5322 29.9299 25.3879ZM19.7343 23.6997C19.885 23.0246 20.1401 22.3563 20.4851 21.7113C19.7433 21.303 19.0007 21.2711 18.4038 21.5269C17.715 21.8221 16.9321 22.6244 16.5173 24.3079C17.6205 24.2217 18.3283 24.0349 18.8825 23.8887C18.9845 23.8618 19.0813 23.8363 19.1744 23.813C19.3397 23.7716 19.5284 23.7268 19.7343 23.6997Z" fill="white"/>
<path d="M28.4022 24.8283C27.5561 25.6744 26.1842 25.6744 25.3381 24.8283C24.4919 23.9822 24.4919 22.6103 25.3381 21.7642C26.1842 20.918 27.5561 20.918 28.4022 21.7642C29.2483 22.6103 29.2483 23.9822 28.4022 24.8283Z" fill="white"/>
</svg>
