<svg width="25" height="24" viewBox="0 0 25 24" fill="none" xmlns="http://www.w3.org/2000/svg">
<path d="M12.25 3C12.6297 3 12.9436 3.28201 12.9933 3.64808L13.0002 3.74985L13.0014 11H20.2545C20.6687 11 21.0045 11.3358 21.0045 11.75C21.0045 12.1297 20.7223 12.4435 20.3563 12.4932L20.2545 12.5H13.0014L13.0034 19.7491C13.0035 20.1633 12.6678 20.4993 12.2536 20.4993C11.8739 20.4993 11.56 20.2173 11.5103 19.8512L11.5034 19.7494L11.5014 12.5H4.25244C3.83822 12.5 3.50244 12.1642 3.50244 11.75C3.50244 11.3703 3.78459 11.0565 4.15067 11.0068L4.25244 11H11.5014L11.5002 3.75015C11.5001 3.33594 11.8358 3 12.25 3Z" fill="#D0662E"/>
</svg>
