<svg width="14" height="15" viewBox="0 0 14 15" fill="none" xmlns="http://www.w3.org/2000/svg">
<path d="M7.54035 13.354C5.80736 14.8886 3.02093 14.8825 1.2976 13.3326C-0.425241 11.7836 -0.43203 9.27711 1.27441 7.71853L1.27298 7.71763L7.54135 2.08037L8.32527 1.37564C9.62356 0.208119 11.728 0.208119 13.0263 1.37564C14.3246 2.54316 14.3246 4.43596 13.0263 5.60394L6.11651 11.7535L6.11408 11.7517C5.26254 12.4901 3.90531 12.4848 3.06393 11.732C2.22254 10.9788 2.21724 9.76445 3.04218 9.00328L3.03975 9.00063L3.80916 8.31299L7.65626 4.87166L8.42518 5.5602L3.80916 9.68917C3.38411 10.0689 3.38411 10.6852 3.80916 11.0653C4.23421 11.4454 4.92342 11.4454 5.34798 11.0653L12.2427 4.8983L12.2408 4.897L12.2669 4.87686C13.1325 4.09864 13.1325 2.83619 12.2669 2.05803C11.4014 1.27986 9.99877 1.27981 9.13321 2.05803L9.11003 2.08167L9.10859 2.08077L8.32516 2.78506L2.05641 8.42237C0.758126 9.58989 0.758126 11.4827 2.05641 12.6502C3.35469 13.8177 5.45964 13.8177 6.75693 12.6502L12.2419 7.71763L13.0253 7.01335L13.8087 7.71763L13.0253 8.42237L7.54135 13.3549L7.54035 13.354Z" fill="#D07C40"/>
</svg>
