<svg width="25" height="24" viewBox="0 0 25 24" fill="none" xmlns="http://www.w3.org/2000/svg">
<path d="M15.0301 3.59076C14.7372 3.29787 14.2623 3.29787 13.9694 3.59076L4.09076 13.4694C3.79787 13.7623 3.79787 14.2372 4.09076 14.5301L5.15898 15.5983C5.5562 15.3762 6.01416 15.2498 6.49959 15.2498C8.01837 15.2498 9.24959 16.481 9.24959 17.9998C9.24959 18.4853 9.12318 18.9432 8.9011 19.3404L9.96944 20.4088C10.2623 20.7017 10.7372 20.7017 11.0301 20.4088L20.9088 10.5301C21.2017 10.2372 21.2017 9.76234 20.9088 9.46945L19.8405 8.40117C19.4432 8.62335 18.9851 8.74983 18.4996 8.74983C16.9808 8.74983 15.7496 7.51861 15.7496 5.99983C15.7496 5.51428 15.8761 5.0562 16.0983 4.65891L15.0301 3.59076ZM12.9088 2.5301C13.7875 1.65142 15.2121 1.65142 16.0908 2.5301L17.2622 3.70158C17.773 4.21233 17.6815 4.92931 17.4239 5.36247C17.3133 5.54851 17.2496 5.76558 17.2496 5.99983C17.2496 6.69019 17.8092 7.24983 18.4996 7.24983C18.7338 7.24983 18.9509 7.18611 19.1369 7.07549C19.5701 6.81795 20.2871 6.72642 20.7978 7.23718L21.9694 8.40878C22.8481 9.28747 22.8481 10.7121 21.9694 11.5908L12.0908 21.4694C11.2121 22.3481 9.78746 22.3481 8.90878 21.4694L7.73712 20.2978C7.22643 19.7871 7.31786 19.0702 7.57533 18.6371C7.68589 18.451 7.74959 18.234 7.74959 17.9998C7.74959 17.3095 7.18994 16.7498 6.49959 16.7498C6.2654 16.7498 6.04837 16.8135 5.86237 16.9241C5.42921 17.1816 4.71233 17.273 4.20164 16.7623L3.0301 15.5908C2.15142 14.7121 2.15143 13.2875 3.0301 12.4088L12.9088 2.5301Z" fill="#E10707"/>
</svg>
