<svg width="22" height="22" viewBox="0 0 22 22" fill="none" xmlns="http://www.w3.org/2000/svg">
<path d="M13.5301 2.59076C13.2372 2.29787 12.7623 2.29787 12.4694 2.59076L2.59076 12.4694C2.29787 12.7623 2.29787 13.2372 2.59076 13.5301L3.65898 14.5983C4.0562 14.3762 4.51416 14.2498 4.99959 14.2498C6.51837 14.2498 7.74959 15.481 7.74959 16.9998C7.74959 17.4853 7.62318 17.9432 7.4011 18.3404L8.46944 19.4088C8.76234 19.7017 9.2372 19.7017 9.5301 19.4088L19.4088 9.5301C19.7017 9.2372 19.7017 8.76234 19.4088 8.46945L18.3405 7.40117C17.9432 7.62335 17.4851 7.74983 16.9996 7.74983C15.4808 7.74983 14.2496 6.51861 14.2496 4.99983C14.2496 4.51428 14.3761 4.0562 14.5983 3.65891L13.5301 2.59076ZM11.4088 1.5301C12.2875 0.651424 13.7121 0.651424 14.5908 1.5301L15.7622 2.70158C16.273 3.21233 16.1815 3.92931 15.9239 4.36247C15.8133 4.54851 15.7496 4.76558 15.7496 4.99983C15.7496 5.69019 16.3092 6.24983 16.9996 6.24983C17.2338 6.24983 17.4509 6.18611 17.6369 6.07549C18.0701 5.81795 18.7871 5.72642 19.2978 6.23718L20.4694 7.40878C21.3481 8.28747 21.3481 9.7121 20.4694 10.5908L10.5908 20.4694C9.7121 21.3481 8.28746 21.3481 7.40878 20.4694L6.23712 19.2978C5.72643 18.7871 5.81786 18.0702 6.07533 17.6371C6.18589 17.451 6.24959 17.234 6.24959 16.9998C6.24959 16.3095 5.68994 15.7498 4.99959 15.7498C4.7654 15.7498 4.54837 15.8135 4.36237 15.9241C3.92921 16.1816 3.21233 16.273 2.70164 15.7623L1.5301 14.5908C0.65142 13.7121 0.65143 12.2875 1.5301 11.4088L11.4088 1.5301Z" fill="#248A3D"/>
</svg>
