<svg width="21" height="22" viewBox="0 0 21 22" fill="none" xmlns="http://www.w3.org/2000/svg">
<path d="M13.0301 2.59076C12.7372 2.29787 12.2623 2.29787 11.9694 2.59076L2.09076 12.4694C1.79787 12.7623 1.79787 13.2372 2.09076 13.5301L3.15898 14.5983C3.5562 14.3762 4.01416 14.2498 4.49959 14.2498C6.01837 14.2498 7.24959 15.481 7.24959 16.9998C7.24959 17.4853 7.12318 17.9432 6.9011 18.3404L7.96944 19.4088C8.26234 19.7017 8.7372 19.7017 9.0301 19.4088L18.9088 9.5301C19.2017 9.2372 19.2017 8.76234 18.9088 8.46945L17.8405 7.40117C17.4432 7.62335 16.9851 7.74983 16.4996 7.74983C14.9808 7.74983 13.7496 6.51861 13.7496 4.99983C13.7496 4.51428 13.8761 4.0562 14.0983 3.65891L13.0301 2.59076ZM10.9088 1.5301C11.7875 0.651424 13.2121 0.651424 14.0908 1.5301L15.2622 2.70158C15.773 3.21233 15.6815 3.92931 15.4239 4.36247C15.3133 4.54851 15.2496 4.76558 15.2496 4.99983C15.2496 5.69019 15.8092 6.24983 16.4996 6.24983C16.7338 6.24983 16.9509 6.18611 17.1369 6.07549C17.5701 5.81795 18.2871 5.72642 18.7978 6.23718L19.9694 7.40878C20.8481 8.28747 20.8481 9.7121 19.9694 10.5908L10.0908 20.4694C9.2121 21.3481 7.78746 21.3481 6.90878 20.4694L5.73712 19.2978C5.22643 18.7871 5.31786 18.0702 5.57533 17.6371C5.68589 17.451 5.74959 17.234 5.74959 16.9998C5.74959 16.3095 5.18994 15.7498 4.49959 15.7498C4.2654 15.7498 4.04837 15.8135 3.86237 15.9241C3.42921 16.1816 2.71233 16.273 2.20164 15.7623L1.0301 14.5908C0.15142 13.7121 0.15143 12.2875 1.0301 11.4088L10.9088 1.5301Z" fill="#F2B20E"/>
</svg>
