<svg width="22" height="22" viewBox="0 0 22 22" fill="none" xmlns="http://www.w3.org/2000/svg">
<path d="M11 7.33325C12.0126 7.33325 12.8334 8.15406 12.8334 9.16659V12.8333C12.8334 13.8458 12.0126 14.6666 11 14.6666H8.25004C7.23752 14.6666 6.41671 13.8458 6.41671 12.8333V9.16659C6.41671 8.15406 7.23752 7.33325 8.25004 7.33325H11ZM13.75 12.065V9.93494L15.3399 8.42984C15.7782 8.01498 16.5 8.32564 16.5 8.9291V13.0708C16.5 13.6742 15.7782 13.9849 15.3399 13.57L13.75 12.065ZM20.1667 10.9999C20.1667 5.93731 16.0626 1.83325 11 1.83325C5.93743 1.83325 1.83337 5.93731 1.83337 10.9999C1.83337 12.4852 2.18755 13.9204 2.8551 15.2094L1.87641 18.7138C1.82007 18.9152 1.82005 19.1286 1.87637 19.3302C2.04657 19.9397 2.67865 20.2958 3.28816 20.1256L6.79516 19.1473C8.08304 19.8133 9.5166 20.1666 11 20.1666C16.0626 20.1666 20.1667 16.0625 20.1667 10.9999ZM3.20837 10.9999C3.20837 6.6967 6.69682 3.20825 11 3.20825C15.3032 3.20825 18.7917 6.6967 18.7917 10.9999C18.7917 15.3031 15.3032 18.7916 11 18.7916C9.65456 18.7916 8.3601 18.4507 7.21154 17.8103L6.96446 17.6725L3.31009 18.692L4.33008 15.0399L4.19198 14.7926C3.55008 13.643 3.20837 12.3471 3.20837 10.9999Z" fill="#3897FF"/>
</svg>
