<svg width="24" height="24" viewBox="0 0 24 24" fill="none" xmlns="http://www.w3.org/2000/svg">
<path d="M20.2417 3.42859H18.7536C18.7226 3.42859 18.695 3.43924 18.6662 3.44621V1.88355C18.6662 0.844875 17.802 0 16.7395 0H3.83101C2.76852 0 1.9043 0.844875 1.9043 1.88355V19.4498C1.9043 20.4885 2.76852 21.3333 3.83101 21.3333H6.09477V22.1838C6.09477 23.1853 6.92588 24 7.94783 24H20.2417C21.2637 24 22.0948 23.1853 22.0948 22.1838V5.24479C22.0948 4.24331 21.2637 3.42859 20.2417 3.42859ZM2.66618 19.4498V1.88355C2.66618 1.26525 3.1889 0.761925 3.83101 0.761925H16.7395C17.3816 0.761925 17.9043 1.26525 17.9043 1.88355V19.4498C17.9043 20.0681 17.3816 20.5714 16.7395 20.5714H3.83101C3.1889 20.5715 2.66618 20.0681 2.66618 19.4498ZM21.3329 22.1838C21.3329 22.7653 20.8433 23.2381 20.2417 23.2381H7.94783C7.34626 23.2381 6.85666 22.7653 6.85666 22.1838V21.3333H16.7395C17.802 21.3333 18.6662 20.4885 18.6662 19.4498V4.17285C18.695 4.17983 18.7226 4.19047 18.7536 4.19047H20.2417C20.8433 4.19047 21.3329 4.66331 21.3329 5.24479V22.1838Z" fill="#FFECEC"/>
<path d="M14.4758 4.95239H6.09483C5.88427 4.95239 5.71387 5.12276 5.71387 5.33332C5.71387 5.54392 5.88427 5.71428 6.09483 5.71428H14.4758C14.6863 5.71428 14.8567 5.54392 14.8567 5.33332C14.8567 5.12276 14.6863 4.95239 14.4758 4.95239Z" fill="#FFECEC"/>
<path d="M14.4758 8H6.09483C5.88427 8 5.71387 8.17036 5.71387 8.38092C5.71387 8.59149 5.88427 8.76189 6.09483 8.76189H14.4758C14.6863 8.76189 14.8567 8.59149 14.8567 8.38092C14.8567 8.17036 14.6863 8 14.4758 8Z" fill="#FFECEC"/>
<path d="M14.4758 11.0476H6.09483C5.88427 11.0476 5.71387 11.218 5.71387 11.4286C5.71387 11.6391 5.88427 11.8095 6.09483 11.8095H14.4758C14.6863 11.8095 14.8567 11.6391 14.8567 11.4286C14.8567 11.218 14.6863 11.0476 14.4758 11.0476Z" fill="#FFECEC"/>
<path d="M10.6663 14.0952H6.09483C5.88427 14.0952 5.71387 14.2656 5.71387 14.4762C5.71387 14.6867 5.88427 14.8571 6.09483 14.8571H10.6663C10.8768 14.8571 11.0472 14.6867 11.0472 14.4762C11.0472 14.2656 10.8768 14.0952 10.6663 14.0952Z" fill="#FFECEC"/>
</svg>
