<svg width="42" height="42" viewBox="0 0 42 42" fill="none" xmlns="http://www.w3.org/2000/svg">
<path d="M15.9027 18.562C16.253 18.197 16.8329 18.1852 17.1978 18.5355C17.5296 18.854 17.5696 19.3622 17.3109 19.7262L17.2243 19.8307L15.3212 21.8132C13.6863 23.5163 13.7416 26.2224 15.4447 27.8574C17.0871 29.434 19.6619 29.4388 21.3098 27.9101L21.4889 27.7339L23.392 25.7514C23.7423 25.3865 24.3222 25.3746 24.6872 25.725C25.019 26.0435 25.0589 26.5516 24.8002 26.9156L24.7136 27.0201L22.8105 29.0026C20.4749 31.4357 16.6091 31.5146 14.176 29.179C11.8166 26.9141 11.6709 23.2104 13.7939 20.7695L13.9996 20.5445L15.9027 18.562ZM22.4577 11.7335C24.7933 9.30044 28.6592 9.22143 31.0923 11.5571C33.4516 13.8219 33.5973 17.5257 31.4743 19.9666L31.2687 20.1916L29.3656 22.1741C29.0153 22.5391 28.4354 22.5509 28.0704 22.2006C27.7386 21.882 27.6987 21.3739 27.9574 21.0099L28.044 20.9054L29.947 18.9229C31.582 17.2198 31.5267 14.5137 29.8235 12.8787C28.1812 11.3021 25.6063 11.2973 23.9586 12.826L23.7794 13.0022L21.8763 14.9847C21.5259 15.3496 20.9461 15.3615 20.5811 15.0111C20.2493 14.6926 20.2093 14.1845 20.4681 13.8205L20.5546 13.716L22.4577 11.7335ZM17.7442 24.1392L26.2024 15.3282C26.5527 14.9633 27.1326 14.9514 27.4976 15.3017C27.8321 15.6229 27.8699 16.137 27.6041 16.5015L27.524 16.5969L19.0659 25.4079C18.7155 25.7729 18.1356 25.7847 17.7707 25.4344C17.4361 25.1132 17.3983 24.5992 17.6641 24.2346L17.7442 24.1392Z" fill="#D98D56"/>
</svg>
